#!OML:ASF F:\VICON\USERDATA\INSTALL\rory3\rory3.ASF
:FULLY-SPECIFIED
:DEGREES
45
root -1.1490988752598206 17.186610224592116 -4.9218454631595865 3.887084796832271 -1.9988815081269524 0.8608214215146539
lfemur -12.029432362917598 7.030577713544297 -25.349951312540618
ltibia 49.879426274169774
lfoot -6.767937701315779 -12.013967886735445
ltoes -2.2946035821334263
rfemur -27.514648387238083 2.400225324981875 22.663878841805644
rtibia 71.9673509361303
rfoot -6.986079536169659 -7.55764774457337
rtoes 9.87771100762205
lowerback 16.190892117381182 1.2640459853739252 -1.1288443225984968
upperback -0.10555212825392124 1.3169326722482169 -0.697221423597831
thorax -8.768192442516659 0.7236102253505311 0.062072884290823235
lowerneck -20.22884002593208 -5.367120777505583 -1.5989615354683153
upperneck 11.002071491867284 -7.8663194952707425 5.819069672340134
head 7.014838527982836 -3.1669193275433583 1.2094897242173257
lclavicle -2.0490533159539317e-17 4.25809920038347e-16
lhumerus -53.730074152316064 -7.200876929765139 91.35247003077896
lradius 89.75422397597544
lwrist 34.18465080887987
lhand -29.70437456948335 6.352325394584087
lfingers 7.125019999999998
lthumb -2.3555269114784765 34.48306086478439
rclavicle -2.049053340060307e-17 4.2580991987946e-16
rhumerus -40.22326844606507 16.493696074730455 -97.38093006446485
rradius 78.36243723288992
rwrist -18.944640526760093
rhand -19.283793145597087 39.23289422551764
rfingers 7.125019999999998
rthumb 6.421099038826793 9.805750791772908
46
root -1.149958838100638 17.15655742224576 -4.859885069868485 3.9106904943839305 -2.0709966653363248 0.6100015697616843
lfemur -11.636772016408333 7.014935531048031 -24.889167480138482
ltibia 51.83302432885603
lfoot -7.800175884574381 -10.47440674695333
ltoes -5.021234742732234
rfemur -29.28630481413033 2.2333555323493517 22.92613043151264
rtibia 70.75887123456927
rfoot -8.489647901349237 -7.367718459137449
rtoes 9.580946354945432
lowerback 16.251316176754663 1.2328627068452978 -0.9470602429657137
upperback -0.10162672005385393 1.3167483215131073 -0.4741332285894192
thorax -8.905331638118097 0.7196184875840905 0.13114492092690094
lowerneck -20.4629481979941 -5.252671488050579 -1.5697275477347166
upperneck 11.072729345619827 -7.70465566038739 5.739299057982844
head 7.071205366589711 -3.0962853165833217 1.1901884338730198
lclavicle -2.04905331544979e-17 4.2580992004171134e-16
lhumerus -52.20715825093975 -7.910425402739158 91.46812622829245
lradius 89.1861318425222
lwrist 34.45291762713864
lhand -29.897114163333395 6.789094309090307
lfingers 7.125019999999998
lthumb -2.122352470446017 35.8791102527795
rclavicle -2.0490533402630216e-17 4.258099198783009e-16
rhumerus -40.94190647837793 16.1428001444477 -97.45774817345445
rradius 77.15239776501821
rwrist -19.17926304613174
rhand -19.215855675310753 39.31013409593497
rfingers 7.125019999999998
rthumb 6.449093678281285 9.871824907801992
47
root -1.154388099432583 17.13874927739973 -4.548425652174151 3.950972048858568 -2.1872992966774425 0.3236975429655379
lfemur -11.389816277033713 7.047133253193576 -24.35578899530007
ltibia 53.599120026928006
lfoot -7.809727769087008 -8.775900750146846
ltoes -5.834367343064966
rfemur -30.757847129733783 2.178633908233319 23.30234692559527
rtibia 69.26562930519768
rfoot -9.93063081271935 -7.871060127285239
rtoes 10.28191861008621
lowerback 16.30834818336994 1.2217454785755182 -0.7345032903150558
upperback -0.0923897741617632 1.360426180023367 -0.20862149843909605
thorax -9.027405208985488 0.7423224116270668 0.20050867706357084
lowerneck -20.631559881963057 -5.116338086120683 -1.5283188858154546
upperneck 11.207920023948592 -7.504480269479401 5.642828248936182
head 7.112793696011458 -3.0148302135530773 1.169678247668323
lclavicle -2.0490533153832343e-17 4.2580992004220773e-16
lhumerus -50.70484677523284 -8.600738837203423 91.51673445112104
lradius 88.74250272085504
lwrist 34.55847295709745
lhand -29.86923026264459 7.198786049962351
lfingers 7.125019999999998
lthumb -2.156212761319265 36.40204549669201
rclavicle -2.049053339894118e-17 4.2580991988069704e-16
rhumerus -41.71254016935141 15.768769167467688 -97.50831874571162
rradius 76.49251163174499
rwrist -19.253185689616963
rhand -19.170443394318216 39.435482170696744
rfingers 7.125019999999998
rthumb 6.463221573752254 9.988747030012117
48
root -1.1580467132277805 17.13636198178232 -4.101212836431396 3.996610538679373 -2.3427689319927603 0.03694319222500064
lfemur -11.291054368566904 7.11668173627713 -23.764120901665393
ltibia 55.2894758809919
lfoot -8.661987834163378 -8.173520113369324
ltoes -7.296247631491411
rfemur -31.932388412923494 2.217383957651772 23.723672372132445
rtibia 67.49846828183539
rfoot -11.123183345434015 -8.73247875259258
rtoes 8.429005446638332
lowerback 16.337715383538093 1.2274548131543184 -0.5144345307522654
upperback -0.0737739449540254 1.4447803571307374 0.07232315922641763
thorax -9.083732981064763 0.7971682325694116 0.26791620266139393
lowerneck -20.735380600948826 -4.997079122622323 -1.4982078114012158
upperneck 11.365233959414901 -7.342031193268881 5.558348689036849
head 7.15721157444773 -2.9402948063225165 1.1549831972972513
lclavicle -2.049053315211536e-17 4.2580992004345206e-16
lhumerus -49.40328994174239 -9.145326661948577 91.54325426667862
lradius 88.56344038630719
lwrist 34.480638661932545
lhand -29.531999360279013 7.5901746428860175
lfingers 7.125019999999998
lthumb -2.1271051511173678 35.76370770103256
rclavicle -2.0490533395653386e-17 4.258099198829573e-16
rhumerus -42.50050956632664 15.405765642961953 -97.5358154595615
rradius 76.28121512946299
rwrist -19.225762312265573
rhand -19.125127334191884 39.60461208058047
rfingers 7.125019999999998
rthumb 6.49099942731951 10.134697708439157
49
root -1.1584003896153778 17.13543434941837 -3.5015863683458495 4.051971402280321 -2.472553943163249 -0.19469213667757757
lfemur -11.346572265587278 7.183525095236934 -23.22782475384606
ltibia 56.946754017522515
lfoot -9.50807950301341 -8.772090824921825
ltoes -6.952753475415936
rfemur -32.87398208145303 2.294918547835508 24.103821140736887
rtibia 65.638330291015
rfoot -11.7644008979882 -9.610364837078082
rtoes 6.352837184281682
lowerback 16.325982066549027 1.2312196020434258 -0.304298127653471
upperback -0.07972485991175937 1.5407627450688053 0.36461361252489966
thorax -9.176719853539234 0.8326995701130839 0.28236691192164254
lowerneck -20.845523666323242 -4.890994777690855 -1.5206777615236475
upperneck 11.50158880452453 -7.182966981970258 5.483000604129362
head 7.20600096042593 -2.8614936054368467 1.1433606429418983
lclavicle -2.0490533149248334e-17 4.2580992004589063e-16
lhumerus -48.18087566151937 -9.47264394010175 91.52638535777056
lradius 88.66418352649264
lwrist 34.33595502246311
lhand -29.337182487749374 7.279993645971716
lfingers 7.125019999999998
lthumb -1.9228331120936066 35.30448901637682
rclavicle -2.0490533399765465e-17 4.2580991988095633e-16
rhumerus -43.270261501082864 15.127863237185297 -97.52886286198603
rradius 76.37515240051434
rwrist -19.554331654469298
rhand -19.04844116713169 39.86345478523566
rfingers 7.125019999999998
rthumb 6.551813020388659 10.367029745087518
50
root -1.1542854389008623 17.155820548480776 -2.931899046445716 4.125434804055716 -2.5645863947874066 -0.4199281388670205
lfemur -11.505140506225866 7.238479465072437 -22.705423309230447
ltibia 58.61944615113043
lfoot -9.856465284812126 -9.41105605060022
ltoes -3.1826626766659807
rfemur -33.57226807637001 2.3554334354423423 24.515942987896082
rtibia 63.71296525300828
rfoot -11.760667335435823 -10.394338368814314
rtoes 4.678951465502423
lowerback 16.275282248324054 1.2325554367633256 -0.08214141573253386
upperback -0.05702398272945114 1.5881423025693426 0.6269209654415882
thorax -9.20533370303668 0.8503275156723169 0.3047579286631408
lowerneck -21.140284828315004 -4.778205395774479 -1.529170155703767
upperneck 11.69451471764753 -7.01517132822531 5.396221362641903
head 7.2858742307564315 -2.782380179614907 1.1208289938304579
lclavicle -2.0490533156723946e-17 4.258099200419593e-16
lhumerus -47.01577908549775 -9.62300926074915 91.40549520292537
lradius 89.0956749759864
lwrist 34.20357072994479
lhand -29.031307013838926 7.41710186470357
lfingers 7.125019999999998
lthumb -1.536491846974529 36.23268082510316
rclavicle -2.0490533399741555e-17 4.258099198818781e-16
rhumerus -44.04314309662734 14.907253840947691 -97.4917184296289
rradius 76.80339136064981
rwrist -20.187687279837814
rhand -18.94582686654773 40.18046435597418
rfingers 7.125019999999998
rthumb 6.6467740425451725 10.656693355270862
51
root -1.1496562353231778 17.199302087264954 -2.353725520381756 4.219073406377325 -2.658693569228073 -0.6860166583382659
lfemur -11.828995481527423 7.27522463773182 -22.141047834892692
ltibia 60.35989802989315
lfoot -8.644897511786278 -9.604822786391722
ltoes 2.664644623105522
rfemur -33.97156613853102 2.4926274913747286 25.00467121789122
rtibia 61.739846858241975
rfoot -11.277423417505446 -11.197925771815846
rtoes 2.369776244326933
lowerback 16.213074223442423 1.2406880490699754 0.168788026690331
upperback -0.0391364969452338 1.6718866461010062 0.8935205323564864
thorax -9.21779777707072 0.8869293179461297 0.3047710645074253
lowerneck -21.36764299316344 -4.674970443758327 -1.5098613289572786
upperneck 11.891129270284186 -6.870222398868179 5.290392492327197
head 7.364724522314782 -2.7207056484721064 1.0894050345454422
lclavicle -2.0490533161415518e-17 4.2580992003954764e-16
lhumerus -46.01342408135046 -9.571672888796414 91.24026163109323
lradius 89.92446011086612
lwrist 34.15871754126851
lhand -28.65909423477309 7.958410191038269
lfingers 7.125019999999998
lthumb -1.1921460604251883 36.51279154652147
rclavicle -2.0490533398154907e-17 4.2580991988354503e-16
rhumerus -44.866516348299754 14.715550515340379 -97.44311232403223
rradius 77.54638606597915
rwrist -20.532964304721528
rhand -18.84084648673141 40.46543002883443
rfingers 7.125019999999998
rthumb 6.730142269496019 10.862184616443713
